<svg xmlns="http://www.w3.org/2000/svg" viewBox="0 0 128 128"><path fill="#FF697D" d="M88.9,124H53.2V64h35.7c16.6,0,30,13.4,30,30v0C118.9,110.6,105.4,124,88.9,124z"/><path fill="#C95065" d="M116.2,82.5c0.1-0.1,0.2-0.2,0.2-0.3C111.9,71.5,101.3,64,88.9,64H53.2v11.7c3.1-1.1,6.4-1.7,9.8-1.7c7.8,0,15.1,3,20.6,8.5c4.4,4.4,10.1,6.8,16.3,6.8C106.1,89.3,111.9,86.9,116.2,82.5z"/><path fill="#F9A7B5" d="M53.2 64A23.1 30 0 1 0 53.2 124A23.1 30 0 1 0 53.2 64Z"/><path fill="#C95065" d="M88.9,114.8h-3.4c-2.5,0-4.6,2.1-4.6,4.6v0c0,2.5,2.1,4.6,4.6,4.6h3.4c16.6,0,30-13.4,30-30l0,0c0-1.6-0.1-3.1-0.4-4.6C116.3,103.8,103.9,114.8,88.9,114.8z"/><path fill="none" stroke="#3F4A54" stroke-linecap="round" stroke-linejoin="round" stroke-width="6" d="M117.6,85.4c0.8,2.7,1.2,5.6,1.2,8.6v0c0,16.6-13.4,30-30,30H53.2"/><path fill="none" stroke="#FFF" stroke-linecap="round" stroke-linejoin="round" stroke-width="6" d="M97.9,76L97.9,76"/><path fill="#FFF" d="M53.2 100.4A2.8 2.8 0 1 0 53.2 106 2.8 2.8 0 1 0 53.2 100.4zM62.4 91.2A2.8 2.8 0 1 0 62.4 96.8 2.8 2.8 0 1 0 62.4 91.2zM44 82A2.8 2.8 0 1 0 44 87.6 2.8 2.8 0 1 0 44 82z"/><path fill="none" stroke="#3F4A54" stroke-linecap="round" stroke-linejoin="round" stroke-width="6" d="M76.3 94c0 16.6-10.3 30-23.1 30M35.4 113.1c-3.3-5.2-5.3-11.8-5.3-19.1M32.2 124L118.8 124M17.2 124L17.2 124"/><g><path fill="#D18669" d="M63,37.9c17.5,0,33.9,6.8,46.2,19.1c2.5,2.5,3.8,5.7,3.8,9.2s-1.4,6.8-3.8,9.2c-2.5,2.5-5.7,3.8-9.2,3.8c-3.5,0-6.8-1.4-9.2-3.8C83.3,68,73.5,64,63,64S42.7,68,35.3,75.4c-2.5,2.5-5.7,3.8-9.2,3.8s-6.8-1.4-9.2-3.8C14.4,73,13,69.7,13,66.2s1.4-6.8,3.8-9.2C29.1,44.6,45.5,37.9,63,37.9z"/><path fill="none" stroke="#FFF" stroke-linecap="round" stroke-linejoin="round" stroke-width="6" d="M30.1 53.8c2.9-2 6-3.6 9.2-5M21.1 61.2C21.7 60.6 20.4 61.8 21.1 61.2"/><path fill="#825559" d="M33.2,77.1c0.7-0.5,1.4-1,2.1-1.7C42.7,68,52.5,64,63,64c10.5,0,20.3,4.1,27.7,11.5c0.8,0.8,1.7,1.4,2.6,2C88.1,63.6,76.5,54,63.2,54C49.9,54,38.5,63.5,33.2,77.1z"/><path fill="none" stroke="#3F4A54" stroke-linecap="round" stroke-linejoin="round" stroke-width="6" d="M30.1,94c0-16.6,10.3-30,23.1-30s23.1,13.4,23.1,30"/><g><path fill="none" stroke="#3F4A54" stroke-linecap="round" stroke-linejoin="round" stroke-width="6" d="M22.6,78.8c-2.2-0.6-4.1-1.7-5.8-3.4C14.4,73,13,69.7,13,66.2s1.4-6.8,3.8-9.2C29.1,44.6,45.5,37.9,63,37.9s33.9,6.8,46.2,19.1c2.5,2.5,3.8,5.7,3.8,9.2s-1.4,6.8-3.8,9.2c-2.5,2.5-5.7,3.8-9.2,3.8c-3.5,0-6.8-1.4-9.2-3.8c-5.2-5.2-11.5-8.7-18.4-10.4c0,0-4-1.1-8.6-1.1H53.2"/></g></g><path fill="none" stroke="#3F4A54" stroke-linecap="round" stroke-linejoin="round" stroke-width="6" d="M109.2 85.4c0-5.5 4.5-10 10-10M17.2 85.4c0-5.5-4.5-10-10-10"/></svg>